Motion_mu03
version=1
nRows=16
nColumns=43
inDegrees=yes
endheader
time	pelvis_tilt	pelvis_list	pelvis_rotation	pelvis_tx	pelvis_ty	pelvis_tz	hip_flexion_r	hip_adduction_r	hip_rotation_r	knee_angle_r	ankle_angle_r	subtalar_angle_r	mtp_angle_r	hip_flexion_l	hip_adduction_l	hip_rotation_l	knee_angle_l	ankle_angle_l	subtalar_angle_l	mtp_angle_l	lumbar_extension	lumbar_bending	lumbar_rotation	neck_flexion	neck_lateral_bending	neck_rotation	arm_flex_r	arm_add_r	arm_rot_r	elbow_flex_r	pro_sup_r	wrist_flex_r	wrist_dev_r	hand_finger_flex_r	arm_flex_l	arm_add_l	arm_rot_l	elbow_flex_l	pro_sup_l	wrist_flex_l	wrist_dev_l	hand_finger_flex_l
      0.91750000	      0.70063607	      3.05767684	    -90.96650982	      0.02405794	      0.83451913	      1.27612503	     19.66992434	    -11.71619826	    -12.62504855	    -91.12288765	     17.52595598	     -8.71443861	      6.15191169	      8.44163440	     -7.76485626	    -16.62935613	    -88.36903493	     32.62175646	     -0.80073500	     -2.75698330	     14.12655792	      1.33063875	     -0.14043258	     10.90891794	     -5.61769623	      1.58044108	     -9.92458897	   -158.69135535	   -123.37539299	     32.34763203	    116.49638754	     21.56203981	    -15.83070941	     73.95630856	     -5.92969731	    204.06911044	   -109.04507914	     36.88360256	     99.54287457	     18.81492195	      2.69967790	     90.00021046
      0.92000000	      0.70747990	      3.04396712	    -90.99466143	      0.02396329	      0.83485057	      1.27917346	     19.61627991	    -11.70117956	    -12.62859125	    -91.15091041	     17.52964145	     -8.71345598	      6.15106605	      8.37772067	     -7.75997114	    -16.62873161	    -88.45158189	     32.62060417	     -0.80329014	     -2.75868853	     14.27385209	      1.32052947	     -0.13108282	     10.90546950	     -5.62214021	      1.58054471	     -9.88630274	   -158.68387081	   -123.37625951	     32.34089228	    116.49027409	     21.56542506	    -15.83005640	     73.95751668	     -5.87867416	    204.06043986	   -109.04736620	     36.89212432	     99.53759112	     18.81460437	      2.69986254	     90.00021046
      0.92250000	      0.71370081	      3.03007935	    -91.02582437	      0.02386930	      0.83517805	      1.28220727	     19.56113843	    -11.68639778	    -12.63218396	    -91.17630967	     17.53618898	     -8.71244232	      6.15026478	      8.31711343	     -7.75526117	    -16.63318286	    -88.54324741	     32.61920324	     -0.80597013	     -2.76046466	     14.42119223	      1.31171027	     -0.11771618	     10.89955318	     -5.62715942	      1.58090205	     -9.85035029	   -158.67708361	   -123.37306332	     32.32756578	    116.48367773	     21.57100561	    -15.82879191	     73.95892897	     -5.82585212	    204.04749327	   -109.04503267	     36.90021091	     99.53200702	     18.81538591	      2.70015709	     90.00021046
      0.92500000	      0.61698461	      3.12551873	    -91.21812994	      0.02359656	      0.83530407	      1.28518031	     19.64242569	    -11.52247972	    -12.57110444	    -91.17938763	     18.07356507	     -8.64907681	      6.12200297	      8.42697302	     -8.02828462	    -16.94200051	    -88.87313705	     32.48705112	     -0.76301359	     -2.87204068	     14.66305866	      1.46764783	      0.05898568	     10.64762997	     -5.66757810	      1.55804268	     -9.58384932	   -158.77124937	   -122.78619423	     31.96965641	    116.09403483	     21.92835292	    -15.82716260	     74.01543930	     -5.57791114	    203.98200336	   -108.36018943	     36.78662945	     99.28160326	     18.92817790	      2.75407750	     90.00021046
      0.92750000	      0.62847438	      3.11585531	    -91.23707377	      0.02350776	      0.83566100	      1.28820712	     19.58190043	    -11.50546952	    -12.56964481	    -91.20779814	     18.07061774	     -8.64514348	      6.12037485	      8.36191295	     -8.01414123	    -16.93316126	    -88.93337290	     32.48588094	     -0.76496158	     -2.87357786	     14.81198944	      1.45610456	      0.05936379	     10.65520137	     -5.67012813	      1.55776594	     -9.53659868	   -158.76809160	   -122.79383611	     31.97779879	    116.08309692	     21.93076327	    -15.82848074	     74.01590723	     -5.53813376	    203.98689440	   -108.36681641	     36.79137384	     99.27324769	     18.92789125	      2.75309104	     90.00021046
      0.93000000	      0.63764881	      3.10499232	    -91.26109213	      0.02342169	      0.83602829	      1.29127324	     19.52021365	    -11.48983345	    -12.57033893	    -91.23283829	     18.06812775	     -8.64046758	      6.11874801	      8.29803134	     -7.99839234	    -16.92629839	    -89.00139762	     32.48505235	     -0.76691954	     -2.87509450	     14.96313901	      1.44687868	      0.06643128	     10.66083129	     -5.67347337	      1.55779277	     -9.49488958	   -158.76519879	   -122.79762761	     31.97680893	    116.07263960	     21.93500029	    -15.82888555	     74.01645668	     -5.49001214	    203.98263365	   -108.37184961	     36.79695416	     99.26472163	     18.92835981	      2.75193231	     90.00021046
      0.93250000	      0.64624960	      3.09498855	    -91.29247699	      0.02331657	      0.83640474	      1.29433312	     19.45645926	    -11.47547205	    -12.57321132	    -91.25496200	     18.06523519	     -8.63466159	      6.11704536	      8.23611467	     -7.98318031	    -16.92045611	    -89.07442876	     32.48475960	     -0.76891242	     -2.87663527	     15.11455160	      1.43887899	      0.07563699	     10.66441418	     -5.67706958	      1.55806145	     -9.45302246	   -158.76276055	   -122.79907254	     31.96799835	    116.06222591	     21.94091764	    -15.82853354	     74.01709573	     -5.43891373	    203.97215990	   -108.37370332	     36.80151987	     99.25637502	     18.92986672	      2.75092115	     90.00021046
      0.93500000	      0.61550908	      3.16170380	    -91.37930987	      0.02313958	      0.83666799	      1.29735916	     19.43714932	    -11.41472193	    -12.51611246	    -91.19919843	     18.40786918	     -7.80502354	      5.88218178	      8.32606929	     -8.05977564	    -16.97365792	    -89.30730610	     32.51708174	     -0.65632944	     -3.20626915	     15.25830165	      1.49928044	      0.13952249	     10.96489264	     -5.78668400	      1.53977999	     -8.90615143	   -158.79819229	   -121.45464787	     31.55884746	    114.33158723	     22.95845761	    -15.91253474	     74.02272099	     -4.87951029	    203.97292915	   -107.06036399	     36.67233955	     97.90630224	     19.39940830	      2.64104533	     90.00021046
      0.93750000	      0.62040461	      3.15262643	    -91.40436403	      0.02305024	      0.83706366	      1.30041577	     19.37939691	    -11.41164888	    -12.52015055	    -91.23390700	     18.40279714	     -7.80404913	      5.88024409	      8.25445398	     -8.05090080	    -16.96319384	    -89.36219896	     32.51600062	     -0.65893700	     -3.20798349	     15.40728861	      1.49824203	      0.13862584	     10.96428107	     -5.78573098	      1.54026774	     -8.85377235	   -158.79866535	   -121.46782043	     31.55749809	    114.32684736	     22.95340607	    -15.90973624	     74.02121402	     -4.83817565	    203.96405439	   -107.07272181	     36.67149098	     97.90011364	     19.39686547	      2.64136050	     90.00021046
      0.94000000	      0.62787035	      3.14247752	    -91.43159396	      0.02293438	      0.83747125	      1.30349444	     19.31469085	    -11.40345312	    -12.53232843	    -91.26526448	     18.39397689	     -7.80033710	      5.87788949	      8.18526161	     -8.04506074	    -16.95234331	    -89.42156782	     32.51598632	     -0.66203650	     -3.20976525	     15.56055522	      1.49185898	      0.14823262	     10.96223493	     -5.78509160	      1.54100760	     -8.81251225	   -158.80124849	   -121.47509486	     31.54726513	    114.32250110	     22.95002734	    -15.90606340	     74.01961517	     -4.78706511	    203.94942395	   -107.08353883	     36.66948664	     97.89409339	     19.39524051	      2.64200876	     90.00021046
      0.94250000	      0.63527787	      3.13250932	    -91.46347830	      0.02279757	      0.83788300	      1.30656415	     19.24691037	    -11.39624165	    -12.54890323	    -91.29115341	     18.38163666	     -7.79438960	      5.87513364	      8.11630918	     -8.04256279	    -16.94146333	    -89.48359461	     32.51656338	     -0.66568525	     -3.21162328	     15.71469863	      1.48465738	      0.15574861	     10.95840535	     -5.78455716	      1.54191225	     -8.77332121	   -158.80365240	   -121.47828584	     31.52942571	    114.31834855	     22.94821866	    -15.90163716	     74.01800874	     -4.73677236	    203.92935497	   -107.09012034	     36.66558444	     97.88857861	     19.39496692	      2.64308057	     90.00021046
      0.94500000	      0.59521644	      3.09391787	    -91.44303320	      0.02267490	      0.83830161	      1.30982709	     19.03437962	    -11.46001465	    -12.81018624	    -91.15400151	     18.19130474	     -7.65633536	      5.82136072	      8.04800472	     -8.16064138	    -16.96146583	    -89.64002871	     32.55701897	     -0.69138116	     -3.25248829	     15.88566446	      1.48983117	      0.16218194	     10.81828959	     -5.71468050	      1.55683796	     -8.70228436	   -158.89480484	   -121.30332866	     31.18276935	    114.22436734	     22.96548327	    -15.82891695	     73.98394453	     -4.73153557	    203.75499999	   -106.88215304	     36.40235376	     97.81733233	     19.45244673	      2.69070793	     90.00021046
      0.94750000	      0.60058668	      3.08529354	    -91.47514351	      0.02252297	      0.83873095	      1.31282603	     18.97738480	    -11.44882886	    -12.81665334	    -91.19651954	     18.18235958	     -7.65215229	      5.81920161	      7.97142796	     -8.15846287	    -16.94328598	    -89.68609676	     32.55490158	     -0.69465292	     -3.25464095	     16.03139722	      1.48701239	      0.14949242	     10.81298756	     -5.71452962	      1.55676272	     -8.65405024	   -158.89324428	   -121.30449075	     31.18784829	    114.21700349	     22.96659057	    -15.82782887	     73.98293544	     -4.67663084	    203.74561515	   -106.89218440	     36.40364360	     97.81032651	     19.45305677	      2.69024010	     90.00021046
      0.95000000	      0.60472247	      3.07306902	    -91.50112278	      0.02240016	      0.83918161	      1.31587819	     18.91763478	    -11.43763391	    -12.82791297	    -91.23434246	     18.17114434	     -7.64658032	      5.81676458	      7.89341923	     -8.15874242	    -16.92514736	    -89.73487291	     32.55279109	     -0.69896574	     -3.25683528	     16.18218357	      1.48293500	      0.14392117	     10.80689331	     -5.71470076	      1.55695070	     -8.61981111	   -158.89254738	   -121.29775448	     31.18495166	    114.21042962	     22.96955086	    -15.82601642	     73.98192898	     -4.61560606	    203.72953277	   -106.89915729	     36.40257086	     97.80377346	     19.45500475	      2.69014836	     90.00021046
      0.95250000	      0.60837277	      3.06073281	    -91.53072543	      0.02226514	      0.83963206	      1.31890415	     18.85667912	    -11.42742542	    -12.84229393	    -91.26846613	     18.15918749	     -7.64049264	      5.81425703	      7.81559518	     -8.15942070	    -16.90768744	    -89.78422792	     32.55041577	     -0.70408265	     -3.25899625	     16.33242368	      1.47879862	      0.13330647	     10.79974456	     -5.71499745	      1.55725283	     -8.58849141	   -158.89153292	   -121.28623133	     31.17662617	    114.20455675	     22.97393943	    -15.82370531	     73.98107291	     -4.55929172	    203.70891998	   -106.90096142	     36.39815658	     97.79806927	     19.45843648	      2.69053026	     90.00021046
      0.95500000	      0.61028221	      3.04739003	    -91.55835007	      0.02214765	      0.84009564	      1.32192543	     18.79492738	    -11.41771241	    -12.85905414	    -91.30083754	     18.14754293	     -7.63433867	      5.81176772	      7.73768220	     -8.15861340	    -16.89092372	    -89.83371781	     32.54757065	     -0.70987307	     -3.26115578	     16.48318858	      1.47569972	      0.12179391	     10.79134767	     -5.71521059	      1.55764196	     -8.56172019	   -158.89087709	   -121.26960198	     31.16403001	    114.19920112	     22.97978560	    -15.82103846	     73.98039059	     -4.50392740	    203.68478463	   -106.89832753	     36.38998343	     97.79310833	     19.46323012	      2.69142512	     90.00021046
